# xmcd
#
# Track frame offsets:
#	180
#	12652
#	27771
#	43487
#	57410
#	68953
#	83252
#	98235
#	110865
#	124100
#	138403
#	152340
#	165112
#	180564
#	194480
#	207835
#	220278
#	235087
#
# Disc length: 3287 seconds
#
# Revision: 0
# Processed by: cddbd v1.5PL3 Copyright (c) Steve Scherf et al.
# Submitted via: dBpowerAMP V4.0
#
DISCID=f70cd512
DTITLE=Divers - Chantons français Avant l'orage (1937-1938)
DYEAR=1937
DGENRE=Chanson
TTITLE0=Berthe Sylva  -  Arrêtez les aiguilles
TTITLE1=Tino Rossi  - Catari Catari
TTITLE2=Edith Piaf  - Mon légionnaire
TTITLE3=Edith Pia  -  Reste
TTITLE4=Fernandel  - Un dur, un vrai, un tatoué
TTITLE5=Ray Ventura  - Les chemises de l'archiduchesse
TTITLE6=Charles Trenet - Menilmontant
TTITLE7=Charles Trenet - Je chante
TTITLE8=Frehel - L'amour des hommes
TTITLE9=Ray Ventura - Comme tout le monde
TTITLE10=Rina Ketty - Sombreros et mantilles
TTITLE11=Fernandel - C'est comme ça à Calcutta
TTITLE12=Edith Piaf - Les hiboux
TTITLE13=Ray Ventura - Qu'est ce qu'on attend ?
TTITLE14=Frehel - La môme catch catch
TTITLE15=Léo Marjane Vous qui passez sans me voir
TTITLE16=Maurice Chevalier - Ah ! si vous connaissiez ma poule
TTITLE17=Charles Trenet - Boum !
EXTD=
EXTT0=
EXTT1=
EXTT2=
EXTT3=
EXTT4=
EXTT5=
EXTT6=
EXTT7=
EXTT8=
EXTT9=
EXTT10=
EXTT11=
EXTT12=
EXTT13=
EXTT14=
EXTT15=
EXTT16=
EXTT17=
PLAYORDER=
